#!OML:ASF H:\Dans Jumps\Project 1\Capture day 1\Session 1\subject.ASF
:FULLY-SPECIFIED
:DEGREES
328
root 1.48159 15.7926 10.0136 -8.93455 -2.36234 0.0215812
lowerback 5.7612 -0.569446 1.79316
upperback 2.96215 -0.647446 3.44108
thorax -0.159634 -0.330959 2.57151
lowerneck -7.77404 1.19221 -1.24187
upperneck 24.8 2.09247 -0.888749
head 9.0295 0.77597 0.117187
rclavicle -7.10655e-015 3.18055e-014
rhumerus -18.5693 -11.0158 -85.0265
rradius 33.4907
rwrist 35.1868
rhand -25.9887 -26.7515
rfingers 7.12502
rthumb 0.556629 -56.7305
lclavicle -7.10655e-015 3.18055e-014
lhumerus -23.0811 -8.52031 90.8169
lradius 29.937
lwrist 18.2415
lhand -25.2384 -9.74158
lfingers 7.12502
lthumb 1.28129 20.2343
rfemur -28.5937 2.36284 17.9943
rtibia 57.4215
rfoot -18.5442 -3.85811
rtoes 2.17341
lfemur -23.096 5.79689 -19.7044
ltibia 57.0541
lfoot -18.3983 14.2347
ltoes -17.2232
329
root 1.477 15.8972 10.0667 -8.36125 -2.21743 0.0454222
lowerback 5.41781 -0.601624 1.64496
upperback 2.82298 -0.705736 3.38524
thorax -0.1093 -0.360821 2.59664
lowerneck -7.80154 1.20993 -1.20897
upperneck 24.7499 2.09683 -0.830183
head 9.01662 0.787302 0.13197
rclavicle 1.59928e-014 -4.45278e-014
rhumerus -18.8134 -11.133 -84.9527
rradius 33.7677
rwrist 34.7236
rhand -25.9494 -26.5821
rfingers 7.12502
rthumb 0.594585 -56.561
lclavicle 1.59928e-014 -4.45278e-014
lhumerus -22.9989 -8.68554 91.1228
lradius 30.2508
lwrist 20.1611
lhand -25.0052 -9.71022
lfingers 7.12502
lthumb 1.50656 20.2642
rfemur -28.1757 2.4953 17.9412
rtibia 56.073
rfoot -18.2582 -4.00895
rtoes 2.69467
lfemur -22.7176 5.62184 -19.7827
ltibia 55.5784
lfoot -18.1025 13.9541
ltoes -16.8737
330
root 1.47246 16.0017 10.1198 -7.75813 -2.04026 0.0680176
lowerback 5.03395 -0.635041 1.50674
upperback 2.66949 -0.76518 3.32374
thorax -0.0508583 -0.391021 2.60954
lowerneck -7.8394 1.21355 -1.17232
upperneck 24.7262 2.08418 -0.782413
head 9.01514 0.789577 0.140933
rclavicle -5.5617e-015 1.27222e-014
rhumerus -19.0836 -11.2133 -84.8524
rradius 33.8904
rwrist 34.4102
rhand -25.8988 -26.425
rfingers 7.12502
rthumb 0.643521 -56.4037
lclavicle -5.5617e-015 1.27222e-014
lhumerus -22.9429 -8.95056 91.4061
lradius 30.5304
lwrist 21.6958
lhand -24.6492 -9.57857
lfingers 7.12502
lthumb 1.85034 20.3932
rfemur -27.7733 2.56389 17.8745
rtibia 54.696
rfoot -17.9712 -4.10614
rtoes 3.21092
lfemur -22.3635 5.4578 -19.8588
ltibia 54.0736
lfoot -17.8134 13.6388
ltoes -16.5619
331
root 1.46792 16.1058 10.1733 -7.14198 -1.82369 0.0513235
lowerback 4.62122 -0.672358 1.41628
upperback 2.51212 -0.827687 3.26799
thorax 0.0196822 -0.422279 2.6009
lowerneck -7.89817 1.20099 -1.14622
upperneck 24.7205 2.05043 -0.73025
head 9.02371 0.781217 0.15133
rclavicle -6.14369e-015 -3.33958e-014
rhumerus -19.3888 -11.2396 -84.7264
rradius 33.9082
rwrist 34.2307
rhand -25.8761 -26.3083
rfingers 7.12502
rthumb 0.665387 -56.287
lclavicle -6.14369e-015 -3.33958e-014
lhumerus -22.9271 -9.34497 91.6828
lradius 30.78
lwrist 22.6675
lhand -24.277 -9.42499
lfingers 7.12502
lthumb 2.20986 20.5433
rfemur -27.3575 2.5652 17.8379
rtibia 53.2821
rfoot -17.6878 -4.14991
rtoes 3.71858
lfemur -22.0209 5.2996 -19.8895
ltibia 52.5542
lfoot -17.5368 13.3
ltoes -16.3312
332
root 1.4633 16.2085 10.2277 -6.52685 -1.56276 -0.0227928
lowerback 4.18673 -0.7152 1.38981
upperback 2.35855 -0.895336 3.22567
thorax 0.106121 -0.4556 2.56954
lowerneck -7.98121 1.17253 -1.13929
upperneck 24.7218 1.99708 -0.672456
head 9.03916 0.76241 0.165173
rclavicle -1.64619e-015 0
rhumerus -19.7246 -11.2274 -84.5741
rradius 33.8474
rwrist 34.1666
rhand -25.8696 -26.2696
rfingers 7.12502
rthumb 0.671666 -56.2483
lclavicle -1.64619e-015 0
lhumerus -22.952 -9.87115 91.9632
lradius 30.992
lwrist 22.9844
lhand -23.9674 -9.30232
lfingers 7.12502
lthumb 2.50882 20.6627
rfemur -26.9052 2.50756 17.8545
rtibia 51.8295
rfoot -17.4129 -4.1522
rtoes 4.18597
lfemur -21.6797 5.14537 -19.8544
ltibia 51.0345
lfoot -17.2764 12.9515
ltoes -16.2329
333
root 1.45845 16.3091 10.2826 -5.91992 -1.25805 -0.159207
lowerback 3.74993 -0.762183 1.42761
upperback 2.20602 -0.966288 3.20155
thorax 0.194593 -0.490096 2.52041
lowerneck -8.07792 1.1269 -1.15622
upperneck 24.7158 1.92256 -0.608042
head 9.05438 0.732308 0.183274
rclavicle 7.59109e-015 0
rhumerus -20.1002 -11.1897 -84.3908
rradius 33.7394
rwrist 34.1766
rhand -25.8667 -26.2647
rfingers 7.12502
rthumb 0.674513 -56.2434
lclavicle 7.59109e-015 0
lhumerus -23.0208 -10.5014 92.2467
lradius 31.1722
lwrist 22.6516
lhand -23.7653 -9.25035
lfingers 7.12502
lthumb 2.70399 20.7123
rfemur -26.4157 2.39993 17.9355
rtibia 50.3446
rfoot -17.1451 -4.11863
rtoes 4.60314
lfemur -21.3422 4.99609 -19.7475
ltibia 49.5258
lfoot -17.0295 12.5996
ltoes -16.2994
334
root 1.45321 16.4066 10.3379 -5.33019 -0.921915 -0.33968
lowerback 3.32084 -0.806857 1.50861
upperback 2.05766 -1.03314 3.193
thorax 0.282588 -0.522261 2.46247
lowerneck -8.18493 1.06554 -1.19257
upperneck 24.6905 1.82947 -0.543291
head 9.06482 0.692034 0.202889
rclavicle 3.31722e-015 -1.51076e-014
rhumerus -20.5052 -11.1581 -84.1752
rradius 33.5966
rwrist 34.2211
rhand -25.8547 -26.265
rfingers 7.12502
rthumb 0.686117 -56.2437
lclavicle 3.31722e-015 -1.51076e-014
lhumerus -23.1324 -11.1843 92.5305
lradius 31.3246
lwrist 21.7484
lhand -23.6697 -9.24297
lfingers 7.12502
lthumb 2.79637 20.7184
rfemur -25.8929 2.26281 18.0665
rtibia 48.8456
rfoot -16.8906 -4.04945
rtoes 5.02381
lfemur -21.0039 4.85849 -19.5868
ltibia 48.0375
lfoot -16.8059 12.2552
ltoes -16.5258
